# xmcd
#
# Track frame offsets: 
#        183
#        12808
#        26573
#        40895
#        55915
#        66773
#        78083
#        90110
#        103218
#        116865
#        133355
#        151988
#        164680
#        178933
#        192675
#        203700
#        217728
#        235980
#        249698
#        262878
#
# Disc length: 3703 seconds
#
# Revision: 0
# Processed by: cddbd v1.4PL0 Copyright (c) Steve Scherf et al.
# Submitted via: ExactAudioCopy v0.90b3
#
DISCID=180e7514
DTITLE=Sidney Bechet - Weary Blues
DYEAR=1900
DGENRE=Blues
TTITLE0=Black Stick
TTITLE1=Viper Mad
TTITLE2=When The Sun Sets Down South
TTITLE3=Sweet Patootie
TTITLE4=Chant In The Night
TTITLE5=Jungle Drums
TTITLE6=Hold Tight (Want Some Sea Food Mama)
TTITLE7=What A Dream
TTITLE8=Weary Blues
TTITLE9=Really The Blues
TTITLE10=Summertime
TTITLE11=High Society
TTITLE12=Indian Summer
TTITLE13=Sidney's Blues
TTITLE14=One O'Clock Jump
TTITLE15=Preaching Blues
TTITLE16=Dear Old Southland
TTITLE17=Perdido St. Blues
TTITLE18=Shake It And Break It
TTITLE19=Wilman Blues
EXTD=
EXTT0=
EXTT1=
EXTT2=
EXTT3=
EXTT4=
EXTT5=
EXTT6=
EXTT7=
EXTT8=
EXTT9=
EXTT10=
EXTT11=
EXTT12=
EXTT13=
EXTT14=
EXTT15=
EXTT16=
EXTT17=
EXTT18=
EXTT19=
PLAYORDER=
